<svg width="336" height="336" viewBox="0 0 336 336" fill="none" xmlns="http://www.w3.org/2000/svg">
<circle cx="168" cy="168" r="168" fill="url(#paint0_linear_2038_570)"/>
<g clip-path="url(#clip0_2038_570)" filter="url(#filter0_i_2038_570)">
<path d="M83.59 199.805C80.5822 211.031 87.2572 222.601 98.4751 225.607L200.167 252.855C211.385 255.861 222.951 249.178 225.959 237.953L253.225 136.194C256.233 124.969 249.558 113.398 238.34 110.393L136.648 83.1443C125.43 80.1384 113.864 86.8211 110.856 98.0464L83.59 199.805ZM119.551 187.628C120.274 184.929 122.039 182.628 124.457 181.231C126.876 179.833 129.75 179.454 132.447 180.177C135.144 180.9 137.443 182.665 138.839 185.084C140.235 187.504 140.612 190.379 139.889 193.078C139.166 195.777 137.401 198.078 134.983 199.475C132.564 200.872 129.69 201.252 126.993 200.529C124.296 199.806 121.997 198.041 120.601 195.622C119.206 193.202 118.828 190.327 119.551 187.628ZM165.681 178.176C162.984 177.453 160.685 175.688 159.289 173.268C157.893 170.849 157.515 167.974 158.238 165.275C158.961 162.576 160.726 160.275 163.145 158.878C165.563 157.48 168.437 157.101 171.134 157.824C173.831 158.547 176.131 160.312 177.526 162.731C178.922 165.15 179.3 168.026 178.577 170.725C177.854 173.423 176.089 175.725 173.67 177.122C171.252 178.519 168.378 178.898 165.681 178.176ZM196.926 142.922C197.649 140.223 199.414 137.922 201.832 136.524C204.251 135.127 207.125 134.748 209.822 135.471C212.519 136.193 214.818 137.958 216.214 140.378C217.61 142.797 217.987 145.673 217.264 148.371C216.541 151.07 214.776 153.371 212.358 154.769C209.939 156.166 207.065 156.545 204.368 155.822C201.671 155.1 199.372 153.335 197.976 150.915C196.581 148.496 196.203 145.621 196.926 142.922Z" fill="white"/>
</g>
<defs>
<filter id="filter0_i_2038_570" x="67.9678" y="74.9697" width="200.88" height="203.061" filterUnits="userSpaceOnUse" color-interpolation-filters="sRGB">
<feFlood flood-opacity="0" result="BackgroundImageFix"/>
<feBlend mode="normal" in="SourceGraphic" in2="BackgroundImageFix" result="shape"/>
<feColorMatrix in="SourceAlpha" type="matrix" values="0 0 0 0 0 0 0 0 0 0 0 0 0 0 0 0 0 0 127 0" result="hardAlpha"/>
<feOffset dy="17"/>
<feGaussianBlur stdDeviation="33.25"/>
<feComposite in2="hardAlpha" operator="arithmetic" k2="-1" k3="1"/>
<feColorMatrix type="matrix" values="0 0 0 0 0 0 0 0 0 0 0 0 0 0 0 0 0 0 0.25 0"/>
<feBlend mode="normal" in2="shape" result="effect1_innerShadow_2038_570"/>
</filter>
<linearGradient id="paint0_linear_2038_570" x1="168" y1="0" x2="168" y2="336" gradientUnits="userSpaceOnUse">
<stop stop-color="#7B5BF5"/>
<stop offset="1" stop-color="#1D55DC"/>
</linearGradient>
<clipPath id="clip0_2038_570">
<rect width="147.488" height="168.447" fill="white" transform="translate(67.9678 217.433) rotate(-75)"/>
</clipPath>
</defs>
</svg>
